<?xml version="1.0" encoding="utf-8"?>
<!-- Generator: Adobe Illustrator 16.0.0, SVG Export Plug-In . SVG Version: 6.00 Build 0)  -->
<!DOCTYPE svg PUBLIC "-//W3C//DTD SVG 1.1//EN" "http://www.w3.org/Graphics/SVG/1.1/DTD/svg11.dtd">
<svg xmlns="http://www.w3.org/2000/svg" xmlns:xlink="http://www.w3.org/1999/xlink" version="1.1" id="Layer_1" x="0px" y="0px" width="100px" height="100px" viewBox="0 0 100 100" enable-background="new 0 0 100 100" xml:space="preserve">

<g>
	<path fill="#89C140" d="M52.791,19.098c0,0,17.756,15.021,30.004,24.932c0,0,6.1,4.058,2.116,6.761L62.63,68.112   c0,0-9.417,3.807-5.401-2.954c0,0,9.932-12.254,14.368-16.059c0,0,5.19-4.166,1.057-8.24   C72.653,40.859,57.229,25.859,52.791,19.098z"/>
	<path fill="#404041" d="M90.645,35.265c0,2.996-2.428,5.421-5.421,5.421c-2.997,0-5.422-2.425-5.422-5.421   c0-2.997,2.425-5.422,5.422-5.422C88.217,29.843,90.645,32.268,90.645,35.265z"/>
	<path fill="#F5C315" d="M83.029,53.989c0,0-15.024,17.755-24.932,30.004c0,0-4.064,6.097-6.764,2.11L34.015,63.825   c0,0-3.811-9.414,2.951-5.398c0,0,12.255,9.928,16.057,14.367c0,0,4.169,5.195,8.242,1.058   C61.265,73.852,76.269,58.427,83.029,53.989z"/>
	<path fill="#404041" d="M66.859,91.842c-2.994,0-5.425-2.428-5.425-5.424c0-2.993,2.431-5.424,5.425-5.424   c2.993,0,5.424,2.431,5.424,5.424C72.283,89.414,69.853,91.842,66.859,91.842z"/>
	<path fill="#F16722" d="M46.388,83.522c0,0-17.754-15.021-30.004-24.931c0,0-6.097-4.06-2.116-6.762l22.284-17.322   c0,0,9.412-3.811,5.398,2.954c0,0-9.931,12.255-14.368,16.061c0,0-5.197,4.164-1.057,8.238   C26.526,61.761,41.951,76.761,46.388,83.522z"/>
	<path fill="#404041" d="M8.535,67.355c0-2.996,2.428-5.421,5.421-5.421c2.997,0,5.422,2.425,5.422,5.421s-2.425,5.422-5.422,5.422   C10.963,72.777,8.535,70.352,8.535,67.355z"/>
	<path fill="#26A9E0" d="M17.64,48.195c0,0,15.018-17.751,24.932-30.003c0,0,4.058-6.098,6.76-2.113L66.651,38.36   c0,0,3.811,9.411-2.95,5.398c0,0-12.255-9.931-16.06-14.369c0,0-4.164-5.193-8.24-1.056C39.402,28.333,24.402,43.758,17.64,48.195z   "/>
	<path fill="#404041" d="M33.808,10.343c2.996,0,5.421,2.428,5.421,5.424c0,2.994-2.425,5.421-5.421,5.421   c-2.997,0-5.422-2.428-5.422-5.421C28.385,12.771,30.811,10.343,33.808,10.343z"/>
</g>
</svg>
